<?xml version="1.0" standalone="no"?><!DOCTYPE svg PUBLIC "-//W3C//DTD SVG 1.1//EN" "http://www.w3.org/Graphics/SVG/1.1/DTD/svg11.dtd"><svg t="1668955979053" class="icon" viewBox="0 0 1024 1024" version="1.1" xmlns="http://www.w3.org/2000/svg" p-id="3029" xmlns:xlink="http://www.w3.org/1999/xlink" width="200" height="200"><path d="M975.235687 731.428571h48.764313v48.760701h-48.764313zM975.235687 682.664258h48.764313v48.764313h-48.764313zM975.235687 633.903558h48.764313v48.7607h-48.764313zM975.235687 585.142857h48.764313v48.760701h-48.764313zM975.235687 536.378544h48.764313v48.764313h-48.764313zM975.235687 487.617843h48.764313v48.760701h-48.764313zM975.235687 438.857143h48.764313v48.7607h-48.764313zM975.235687 390.096442h48.764313v48.760701h-48.764313zM926.474986 780.189272h48.760701v48.760701h-48.760701z" fill="#09111F" p-id="3030"></path><path d="M926.474986 731.428571h48.760701v48.760701h-48.760701zM926.474986 682.664258h48.760701v48.764313h-48.760701zM926.474986 633.903558h48.760701v48.7607h-48.760701zM926.474986 585.142857h48.760701v48.760701h-48.760701zM926.474986 536.378544h48.760701v48.764313h-48.760701zM926.474986 487.617843h48.760701v48.760701h-48.760701zM926.474986 438.857143h48.760701v48.7607h-48.760701z" fill="#5C7EBF" p-id="3031"></path><path d="M926.474986 390.096442h48.760701v48.760701h-48.760701z" fill="#FFFFFF" p-id="3032"></path><path d="M926.474986 341.332129h48.760701v48.764313h-48.760701zM926.474986 292.571429h48.760701v48.7607h-48.760701zM877.714286 828.949973h48.7607v48.764313H877.714286z" fill="#09111F" p-id="3033"></path><path d="M877.714286 780.189272h48.7607v48.760701H877.714286zM877.714286 731.428571h48.7607v48.760701H877.714286z" fill="#454853" p-id="3034"></path><path d="M877.714286 682.664258h48.7607v48.764313H877.714286zM877.714286 633.903558h48.7607v48.7607H877.714286z" fill="#5C7EBF" p-id="3035"></path><path d="M877.714286 585.142857h48.7607v48.760701H877.714286zM877.714286 536.378544h48.7607v48.764313H877.714286zM877.714286 487.617843h48.7607v48.760701H877.714286z" fill="#BFC4D9" p-id="3036"></path><path d="M877.714286 438.857143h48.7607v48.7607H877.714286z" fill="#939299" p-id="3037"></path><path d="M877.714286 390.096442h48.7607v48.760701H877.714286z" fill="#BFC4D9" p-id="3038"></path><path d="M877.714286 341.332129h48.7607v48.764313H877.714286zM877.714286 292.571429h48.7607v48.7607H877.714286z" fill="#454853" p-id="3039"></path><path d="M877.714286 243.810728h48.7607V292.571429H877.714286zM877.714286 195.046415h48.7607v48.764313H877.714286zM828.949973 780.189272h48.764313v48.760701h-48.764313z" fill="#09111F" p-id="3040"></path><path d="M828.949973 731.428571h48.764313v48.760701h-48.764313z" fill="#454853" p-id="3041"></path><path d="M828.949973 682.664258h48.764313v48.764313h-48.764313zM828.949973 633.903558h48.764313v48.7607h-48.764313zM828.949973 585.142857h48.764313v48.760701h-48.764313zM828.949973 536.378544h48.764313v48.764313h-48.764313z" fill="#BFC4D9" p-id="3042"></path><path d="M828.949973 487.617843h48.764313v48.760701h-48.764313z" fill="#939299" p-id="3043"></path><path d="M828.949973 438.857143h48.764313v48.7607h-48.764313z" fill="#0974EB" p-id="3044"></path><path d="M828.949973 390.096442h48.764313v48.760701h-48.764313z" fill="#939299" p-id="3045"></path><path d="M828.949973 341.332129h48.764313v48.764313h-48.764313z" fill="#BFC4D9" p-id="3046"></path><path d="M828.949973 292.571429h48.764313v48.7607h-48.764313z" fill="#454853" p-id="3047"></path><path d="M828.949973 243.810728h48.764313V292.571429h-48.764313zM828.949973 195.046415h48.764313v48.764313h-48.764313zM780.189272 780.189272h48.760701v48.760701h-48.760701z" fill="#09111F" p-id="3048"></path><path d="M780.189272 731.428571h48.760701v48.760701h-48.760701z" fill="#454853" p-id="3049"></path><path d="M780.189272 682.664258h48.760701v48.764313h-48.760701z" fill="#BFC4D9" p-id="3050"></path><path d="M780.189272 633.903558h48.760701v48.7607h-48.760701z" fill="#FFFFFF" p-id="3051"></path><path d="M780.189272 585.142857h48.760701v48.760701h-48.760701z" fill="#BFC4D9" p-id="3052"></path><path d="M780.189272 536.378544h48.760701v48.764313h-48.760701z" fill="#939299" p-id="3053"></path><path d="M780.189272 487.617843h48.760701v48.760701h-48.760701z" fill="#D81515" p-id="3054"></path><path d="M780.189272 438.857143h48.760701v48.7607h-48.760701z" fill="#0974EB" p-id="3055"></path><path d="M780.189272 390.096442h48.760701v48.760701h-48.760701z" fill="#EAB603" p-id="3056"></path><path d="M780.189272 341.332129h48.760701v48.764313h-48.760701z" fill="#939299" p-id="3057"></path><path d="M780.189272 292.571429h48.760701v48.7607h-48.760701zM780.189272 243.810728h48.760701V292.571429h-48.760701z" fill="#454853" p-id="3058"></path><path d="M780.189272 195.046415h48.760701v48.764313h-48.760701zM731.428571 731.428571h48.760701v48.760701h-48.760701z" fill="#09111F" p-id="3059"></path><path d="M731.428571 682.664258h48.760701v48.764313h-48.760701z" fill="#454853" p-id="3060"></path><path d="M731.428571 633.903558h48.760701v48.7607h-48.760701z" fill="#BFC4D9" p-id="3061"></path><path d="M731.428571 585.142857h48.760701v48.760701h-48.760701z" fill="#FFFFFF" p-id="3062"></path><path d="M731.428571 536.378544h48.760701v48.764313h-48.760701z" fill="#939299" p-id="3063"></path><path d="M731.428571 487.617843h48.760701v48.760701h-48.760701z" fill="#D81515" p-id="3064"></path><path d="M731.428571 438.857143h48.760701v48.7607h-48.760701z" fill="#24BF1D" p-id="3065"></path><path d="M731.428571 390.096442h48.760701v48.760701h-48.760701z" fill="#EAB603" p-id="3066"></path><path d="M731.428571 341.332129h48.760701v48.764313h-48.760701z" fill="#939299" p-id="3067"></path><path d="M731.428571 292.571429h48.760701v48.7607h-48.760701zM731.428571 243.810728h48.760701V292.571429h-48.760701z" fill="#454853" p-id="3068"></path><path d="M731.428571 195.046415h48.760701v48.764313h-48.760701zM682.664258 731.428571h48.764313v48.760701h-48.764313zM682.664258 682.664258h48.764313v48.764313h-48.764313z" fill="#09111F" p-id="3069"></path><path d="M682.664258 633.903558h48.764313v48.7607h-48.764313zM682.664258 585.142857h48.764313v48.760701h-48.764313zM682.664258 536.378544h48.764313v48.764313h-48.764313z" fill="#BFC4D9" p-id="3070"></path><path d="M682.664258 487.617843h48.764313v48.760701h-48.764313z" fill="#939299" p-id="3071"></path><path d="M682.664258 438.857143h48.764313v48.7607h-48.764313z" fill="#24BF1D" p-id="3072"></path><path d="M682.664258 390.096442h48.764313v48.760701h-48.764313z" fill="#939299" p-id="3073"></path><path d="M682.664258 341.332129h48.764313v48.764313h-48.764313z" fill="#BFC4D9" p-id="3074"></path><path d="M682.664258 292.571429h48.764313v48.7607h-48.764313zM682.664258 243.810728h48.764313V292.571429h-48.764313z" fill="#454853" p-id="3075"></path><path d="M682.664258 195.046415h48.764313v48.764313h-48.764313zM633.903558 780.189272h48.7607v48.760701h-48.7607zM633.903558 731.428571h48.7607v48.760701h-48.7607z" fill="#09111F" p-id="3076"></path><path d="M633.903558 682.664258h48.7607v48.764313h-48.7607z" fill="#BFC4D9" p-id="3077"></path><path d="M633.903558 633.903558h48.7607v48.7607h-48.7607zM633.903558 585.142857h48.7607v48.760701h-48.7607z" fill="#567097" p-id="3078"></path><path d="M633.903558 536.378544h48.7607v48.764313h-48.7607zM633.903558 487.617843h48.7607v48.760701h-48.7607z" fill="#BFC4D9" p-id="3079"></path><path d="M633.903558 438.857143h48.7607v48.7607h-48.7607z" fill="#939299" p-id="3080"></path><path d="M633.903558 390.096442h48.7607v48.760701h-48.7607zM633.903558 341.332129h48.7607v48.764313h-48.7607z" fill="#BFC4D9" p-id="3081"></path><path d="M633.903558 292.571429h48.7607v48.7607h-48.7607z" fill="#454853" p-id="3082"></path><path d="M633.903558 243.810728h48.7607V292.571429h-48.7607zM585.142857 731.428571h48.760701v48.760701H585.142857zM585.142857 682.664258h48.760701v48.764313H585.142857z" fill="#09111F" p-id="3083"></path><path d="M585.142857 633.903558h48.760701v48.7607H585.142857zM585.142857 585.142857h48.760701v48.760701H585.142857z" fill="#567097" p-id="3084"></path><path d="M585.142857 536.378544h48.760701v48.764313H585.142857z" fill="#BFC4D9" p-id="3085"></path><path d="M585.142857 487.617843h48.760701v48.760701H585.142857z" fill="#232B38" p-id="3086"></path><path d="M585.142857 438.857143h48.760701v48.7607H585.142857z" fill="#BFC4D9" p-id="3087"></path><path d="M585.142857 390.096442h48.760701v48.760701H585.142857z" fill="#567097" p-id="3088"></path><path d="M585.142857 341.332129h48.760701v48.764313H585.142857z" fill="#BFC4D9" p-id="3089"></path><path d="M585.142857 292.571429h48.760701v48.7607H585.142857zM536.378544 682.664258h48.764313v48.764313h-48.764313z" fill="#09111F" p-id="3090"></path><path d="M536.378544 633.903558h48.764313v48.7607h-48.764313zM536.378544 585.142857h48.764313v48.760701h-48.764313zM536.378544 536.378544h48.764313v48.764313h-48.764313z" fill="#BFC4D9" p-id="3091"></path><path d="M536.378544 487.617843h48.764313v48.760701h-48.764313z" fill="#232B38" p-id="3092"></path><path d="M536.378544 438.857143h48.764313v48.7607h-48.764313z" fill="#BFC4D9" p-id="3093"></path><path d="M536.378544 390.096442h48.764313v48.760701h-48.764313z" fill="#567097" p-id="3094"></path><path d="M536.378544 341.332129h48.764313v48.764313h-48.764313z" fill="#BFC4D9" p-id="3095"></path><path d="M536.378544 292.571429h48.764313v48.7607h-48.764313zM487.617843 682.664258h48.760701v48.764313h-48.760701z" fill="#09111F" p-id="3096"></path><path d="M487.617843 633.903558h48.760701v48.7607h-48.760701z" fill="#BFC4D9" p-id="3097"></path><path d="M487.617843 585.142857h48.760701v48.760701h-48.760701z" fill="#939299" p-id="3098"></path><path d="M487.617843 536.378544h48.760701v48.764313h-48.760701zM487.617843 487.617843h48.760701v48.760701h-48.760701zM487.617843 438.857143h48.760701v48.7607h-48.760701zM487.617843 390.096442h48.760701v48.760701h-48.760701zM487.617843 341.332129h48.760701v48.764313h-48.760701z" fill="#BFC4D9" p-id="3099"></path><path d="M487.617843 292.571429h48.760701v48.7607h-48.760701zM438.857143 682.664258h48.7607v48.764313h-48.7607z" fill="#09111F" p-id="3100"></path><path d="M438.857143 633.903558h48.7607v48.7607h-48.7607zM438.857143 585.142857h48.7607v48.760701h-48.7607zM438.857143 536.378544h48.7607v48.764313h-48.7607z" fill="#BFC4D9" p-id="3101"></path><path d="M438.857143 487.617843h48.7607v48.760701h-48.7607z" fill="#232B38" p-id="3102"></path><path d="M438.857143 438.857143h48.7607v48.7607h-48.7607z" fill="#BFC4D9" p-id="3103"></path><path d="M438.857143 390.096442h48.7607v48.760701h-48.7607z" fill="#567097" p-id="3104"></path><path d="M438.857143 341.332129h48.7607v48.764313h-48.7607z" fill="#BFC4D9" p-id="3105"></path><path d="M438.857143 292.571429h48.7607v48.7607h-48.7607zM390.096442 731.428571h48.760701v48.760701h-48.760701zM390.096442 682.664258h48.760701v48.764313h-48.760701z" fill="#09111F" p-id="3106"></path><path d="M390.096442 633.903558h48.760701v48.7607h-48.760701zM390.096442 585.142857h48.760701v48.760701h-48.760701zM390.096442 536.378544h48.760701v48.764313h-48.760701z" fill="#BFC4D9" p-id="3107"></path><path d="M390.096442 487.617843h48.760701v48.760701h-48.760701z" fill="#232B38" p-id="3108"></path><path d="M390.096442 438.857143h48.760701v48.7607h-48.760701z" fill="#BFC4D9" p-id="3109"></path><path d="M390.096442 390.096442h48.760701v48.760701h-48.760701z" fill="#567097" p-id="3110"></path><path d="M390.096442 341.332129h48.760701v48.764313h-48.760701z" fill="#BFC4D9" p-id="3111"></path><path d="M390.096442 292.571429h48.760701v48.7607h-48.760701zM341.332129 780.189272h48.764313v48.760701H341.332129zM341.332129 731.428571h48.764313v48.760701H341.332129z" fill="#09111F" p-id="3112"></path><path d="M341.332129 682.664258h48.764313v48.764313H341.332129z" fill="#BFC4D9" p-id="3113"></path><path d="M341.332129 633.903558h48.764313v48.7607H341.332129zM341.332129 585.142857h48.764313v48.760701H341.332129z" fill="#567097" p-id="3114"></path><path d="M341.332129 536.378544h48.764313v48.764313H341.332129zM341.332129 487.617843h48.764313v48.760701H341.332129z" fill="#BFC4D9" p-id="3115"></path><path d="M341.332129 438.857143h48.764313v48.7607H341.332129z" fill="#939299" p-id="3116"></path><path d="M341.332129 390.096442h48.764313v48.760701H341.332129zM341.332129 341.332129h48.764313v48.764313H341.332129z" fill="#BFC4D9" p-id="3117"></path><path d="M341.332129 292.571429h48.764313v48.7607H341.332129z" fill="#454853" p-id="3118"></path><path d="M341.332129 243.810728h48.764313V292.571429H341.332129zM292.571429 731.428571h48.7607v48.760701H292.571429zM292.571429 682.664258h48.7607v48.764313H292.571429z" fill="#09111F" p-id="3119"></path><path d="M292.571429 633.903558h48.7607v48.7607H292.571429zM292.571429 585.142857h48.7607v48.760701H292.571429z" fill="#567097" p-id="3120"></path><path d="M292.571429 536.378544h48.7607v48.764313H292.571429z" fill="#BFC4D9" p-id="3121"></path><path d="M292.571429 487.617843h48.7607v48.760701H292.571429z" fill="#939299" p-id="3122"></path><path d="M292.571429 438.857143h48.7607v48.7607H292.571429z" fill="#232B38" p-id="3123"></path><path d="M292.571429 390.096442h48.7607v48.760701H292.571429z" fill="#939299" p-id="3124"></path><path d="M292.571429 341.332129h48.7607v48.764313H292.571429z" fill="#BFC4D9" p-id="3125"></path><path d="M292.571429 292.571429h48.7607v48.7607H292.571429zM292.571429 243.810728h48.7607V292.571429H292.571429z" fill="#454853" p-id="3126"></path><path d="M292.571429 195.046415h48.7607v48.764313H292.571429zM243.810728 731.428571H292.571429v48.760701H243.810728z" fill="#09111F" p-id="3127"></path><path d="M243.810728 682.664258H292.571429v48.764313H243.810728z" fill="#454853" p-id="3128"></path><path d="M243.810728 633.903558H292.571429v48.7607H243.810728zM243.810728 585.142857H292.571429v48.760701H243.810728z" fill="#BFC4D9" p-id="3129"></path><path d="M243.810728 536.378544H292.571429v48.764313H243.810728z" fill="#939299" p-id="3130"></path><path d="M243.810728 487.617843H292.571429v48.760701H243.810728zM243.810728 438.857143H292.571429v48.7607H243.810728zM243.810728 390.096442H292.571429v48.760701H243.810728z" fill="#232B38" p-id="3131"></path><path d="M243.810728 341.332129H292.571429v48.764313H243.810728z" fill="#939299" p-id="3132"></path><path d="M243.810728 292.571429H292.571429v48.7607H243.810728zM243.810728 243.810728H292.571429V292.571429H243.810728z" fill="#454853" p-id="3133"></path><path d="M243.810728 195.046415H292.571429v48.764313H243.810728zM195.046415 780.189272h48.764313v48.760701H195.046415z" fill="#09111F" p-id="3134"></path><path d="M195.046415 731.428571h48.764313v48.760701H195.046415z" fill="#454853" p-id="3135"></path><path d="M195.046415 682.664258h48.764313v48.764313H195.046415z" fill="#BFC4D9" p-id="3136"></path><path d="M195.046415 633.903558h48.764313v48.7607H195.046415z" fill="#FFFFFF" p-id="3137"></path><path d="M195.046415 585.142857h48.764313v48.760701H195.046415z" fill="#BFC4D9" p-id="3138"></path><path d="M195.046415 536.378544h48.764313v48.764313H195.046415z" fill="#939299" p-id="3139"></path><path d="M195.046415 487.617843h48.764313v48.760701H195.046415zM195.046415 438.857143h48.764313v48.7607H195.046415zM195.046415 390.096442h48.764313v48.760701H195.046415z" fill="#232B38" p-id="3140"></path><path d="M195.046415 341.332129h48.764313v48.764313H195.046415z" fill="#939299" p-id="3141"></path><path d="M195.046415 292.571429h48.764313v48.7607H195.046415zM195.046415 243.810728h48.764313V292.571429H195.046415z" fill="#454853" p-id="3142"></path><path d="M195.046415 195.046415h48.764313v48.764313H195.046415zM146.285714 828.949973h48.760701v48.764313H146.285714z" fill="#09111F" p-id="3143"></path><path d="M146.285714 780.189272h48.760701v48.760701H146.285714zM146.285714 731.428571h48.760701v48.760701H146.285714z" fill="#454853" p-id="3144"></path><path d="M146.285714 682.664258h48.760701v48.764313H146.285714zM146.285714 633.903558h48.760701v48.7607H146.285714z" fill="#BFC4D9" p-id="3145"></path><path d="M146.285714 585.142857h48.760701v48.760701H146.285714z" fill="#FFFFFF" p-id="3146"></path><path d="M146.285714 536.378544h48.760701v48.764313H146.285714z" fill="#BFC4D9" p-id="3147"></path><path d="M146.285714 487.617843h48.760701v48.760701H146.285714z" fill="#939299" p-id="3148"></path><path d="M146.285714 438.857143h48.760701v48.7607H146.285714z" fill="#232B38" p-id="3149"></path><path d="M146.285714 390.096442h48.760701v48.760701H146.285714z" fill="#939299" p-id="3150"></path><path d="M146.285714 341.332129h48.760701v48.764313H146.285714zM146.285714 292.571429h48.760701v48.7607H146.285714z" fill="#454853" p-id="3151"></path><path d="M146.285714 243.810728h48.760701V292.571429H146.285714zM146.285714 195.046415h48.760701v48.764313H146.285714zM97.525014 780.189272h48.7607v48.760701H97.525014z" fill="#09111F" p-id="3152"></path><path d="M97.525014 731.428571h48.7607v48.760701H97.525014z" fill="#454853" p-id="3153"></path><path d="M97.525014 682.664258h48.7607v48.764313H97.525014zM97.525014 633.903558h48.7607v48.7607H97.525014z" fill="#5C7EBF" p-id="3154"></path><path d="M97.525014 585.142857h48.7607v48.760701H97.525014z" fill="#454853" p-id="3155"></path><path d="M97.525014 536.378544h48.7607v48.764313H97.525014z" fill="#FFFFFF" p-id="3156"></path><path d="M97.525014 487.617843h48.7607v48.760701H97.525014z" fill="#BFC4D9" p-id="3157"></path><path d="M97.525014 438.857143h48.7607v48.7607H97.525014z" fill="#939299" p-id="3158"></path><path d="M97.525014 390.096442h48.7607v48.760701H97.525014zM97.525014 341.332129h48.7607v48.764313H97.525014zM97.525014 292.571429h48.7607v48.7607H97.525014z" fill="#454853" p-id="3159"></path><path d="M97.525014 243.810728h48.7607V292.571429H97.525014zM48.760701 780.189272h48.764313v48.760701H48.760701z" fill="#09111F" p-id="3160"></path><path d="M48.760701 731.428571h48.764313v48.760701H48.760701zM48.760701 682.664258h48.764313v48.764313H48.760701zM48.760701 633.903558h48.764313v48.7607H48.760701zM48.760701 585.142857h48.764313v48.760701H48.760701zM48.760701 536.378544h48.764313v48.764313H48.760701zM48.760701 487.617843h48.764313v48.760701H48.760701zM48.760701 438.857143h48.764313v48.7607H48.760701z" fill="#5C7EBF" p-id="3161"></path><path d="M48.760701 390.096442h48.764313v48.760701H48.760701z" fill="#FFFFFF" p-id="3162"></path><path d="M48.760701 341.332129h48.764313v48.764313H48.760701zM48.760701 292.571429h48.764313v48.7607H48.760701zM0 731.428571h48.760701v48.760701H0zM0 682.664258h48.760701v48.764313H0zM0 633.903558h48.760701v48.7607H0zM0 585.142857h48.760701v48.760701H0zM0 536.378544h48.760701v48.764313H0zM0 487.617843h48.760701v48.760701H0zM0 438.857143h48.760701v48.7607H0zM0 390.096442h48.760701v48.760701H0z" fill="#09111F" p-id="3163"></path></svg>